<?xml version="1.0" encoding="utf-8"?>
<!-- Generator: Adobe Illustrator 16.0.3, SVG Export Plug-In . SVG Version: 6.00 Build 0)  -->
<!DOCTYPE svg PUBLIC "-//W3C//DTD SVG 1.1//EN" "http://www.w3.org/Graphics/SVG/1.1/DTD/svg11.dtd">
<svg version="1.1" xmlns="http://www.w3.org/2000/svg" xmlns:xlink="http://www.w3.org/1999/xlink" x="0px" y="0px"
	 width="821.75px" height="112.764px" viewBox="0 0 821.75 112.764" enable-background="new 0 0 821.75 112.764"
	 xml:space="preserve">
<g id="Capa_2">
	<g>
		<g>
			<path fill="none" stroke="#3FA9F5" stroke-width="0.25" stroke-miterlimit="10" d="M32.389,23.529l-0.085-0.031L5.873,51.878
				l53.354,55.716l0.087,0.092l62.401-51.329L32.389,23.529z M6.266,51.875L32.38,23.835l88.762,32.62l-61.805,50.84L6.266,51.875z"
				/>
			<polygon fill="#FFFFFF" points="31.9,24.217 7.345,50.961 58.824,105.249 117.534,56.711 			"/>
		</g>
		<g opacity="0.7">
			<g>
				<path fill="#3FA9F5" d="M33.718,18.708c-0.028-0.01-0.057-0.021-0.085-0.031c-1.597-0.578-3.733,0.07-4.865,1.286
					c-8.81,9.46-17.621,18.92-26.431,28.38c-1.887,2.026-1.935,5.051,0,7.071c17.814,18.602,35.681,37.154,53.441,55.808
					c2.013,2.114,5.01,1.695,7.071,0c20.8-17.11,41.601-34.22,62.401-51.329c3.163-2.602,0.966-7.191-2.207-8.357
					C93.269,40.592,63.494,29.65,33.718,18.708c-6.066-2.229-8.658,7.438-2.658,9.643c29.775,10.943,59.551,21.885,89.327,32.828
					c-0.735-2.786-1.471-5.571-2.207-8.357c-20.8,17.11-41.601,34.22-62.401,51.329c2.357,0,4.714,0,7.071,0
					C45.089,85.497,27.222,66.945,9.408,48.342c0,2.357,0,4.714,0,7.071c8.81-9.46,17.621-18.92,26.431-28.38
					c-1.622,0.429-3.243,0.857-4.865,1.286c0.028,0.01,0.057,0.021,0.085,0.031C37.138,30.551,39.732,20.885,33.718,18.708z"/>
				<path fill="#3FA9F5" d="M9.801,55.41c8.705-9.347,17.409-18.693,26.114-28.039c-1.622,0.429-3.243,0.857-4.865,1.286
					c29.587,10.874,59.175,21.747,88.762,32.62c-0.735-2.786-1.471-5.571-2.207-8.357c-20.602,16.947-41.203,33.894-61.805,50.84
					c2.357,0,4.714,0,7.071,0C45.182,85.286,27.492,66.813,9.801,48.339C5.334,43.674-1.728,50.754,2.73,55.41
					c17.69,18.474,35.381,36.947,53.071,55.421c2.019,2.108,5.005,1.7,7.071,0c20.602-16.947,41.203-33.894,61.805-50.84
					c3.163-2.602,0.966-7.191-2.207-8.357c-29.587-10.874-59.175-21.747-88.762-32.62c-1.592-0.585-3.737,0.075-4.865,1.286
					C20.14,29.646,11.435,38.993,2.73,48.339C-1.658,53.051,5.398,60.138,9.801,55.41z"/>
			</g>
			<g>
				<path fill="#3FA9F5" d="M28.365,20.681c-8.185,8.915-16.37,17.83-24.556,26.745c-1.879,2.047-1.935,5.031,0,7.071
					c17.16,18.096,34.32,36.191,51.479,54.287c2.005,2.114,5.018,1.698,7.071,0c19.57-16.179,39.14-32.358,58.709-48.538
					c3.177-2.626,0.948-7.16-2.207-8.357C90.318,41.058,61.774,30.227,33.229,19.396c-6.04-2.292-8.626,7.378-2.658,9.643
					C59.116,39.87,87.66,50.701,116.205,61.532c-0.735-2.786-1.471-5.571-2.207-8.357c-19.57,16.179-39.14,32.358-58.709,48.538
					c2.357,0,4.714,0,7.071,0C45.2,83.617,28.04,65.521,10.88,47.426c0,2.357,0,4.714,0,7.071
					c8.185-8.915,16.37-17.83,24.556-26.745C39.788,23.012,32.735,15.922,28.365,20.681z"/>
			</g>
		</g>
	</g>
</g>
<g id="Capa_1">
	<g>
		<g>
			<radialGradient id="SVGID_1_" cx="39.1045" cy="25.2568" r="21.4251" gradientUnits="userSpaceOnUse">
				<stop  offset="0" style="stop-color:#FFFFFF"/>
				<stop  offset="0.1214" style="stop-color:#FDE7DF"/>
				<stop  offset="0.4406" style="stop-color:#F8AB90"/>
				<stop  offset="0.7036" style="stop-color:#F47F56"/>
				<stop  offset="0.897" style="stop-color:#F26432"/>
				<stop  offset="1" style="stop-color:#F15A24"/>
			</radialGradient>
			<path fill="url(#SVGID_1_)" d="M29.737,41.222C20.863,20.176,40.107,6.891,58.072,8.166c-0.792-2.94-0.372-3.66,0.184-6.39
				c-32.018,2.266-45.021,18.568-34.975,46.96C24.748,44.443,25.936,44.346,29.737,41.222z"/>
			<path fill="#4D4D4D" d="M29.075,41.738l-0.086-0.228L28.4,39.953l-0.147-0.389l-0.127-0.413l-0.253-0.827
				c-0.082-0.276-0.173-0.551-0.246-0.828l-0.193-0.835l-0.191-0.834c-0.067-0.277-0.094-0.564-0.144-0.845
				c-0.196-1.126-0.293-2.272-0.322-3.417c-0.022-1.147,0.044-2.298,0.203-3.436c0.165-1.138,0.413-2.266,0.77-3.358
				c0.184-0.545,0.353-1.095,0.596-1.617l0.34-0.792c0.116-0.262,0.261-0.511,0.391-0.767l0.4-0.762l0.455-0.73
				c0.156-0.241,0.295-0.492,0.464-0.723l0.507-0.693c0.676-0.923,1.441-1.776,2.246-2.583c0.393-0.414,0.837-0.773,1.252-1.162
				c0.427-0.376,0.885-0.715,1.326-1.073c0.455-0.34,0.927-0.656,1.39-0.984l1.445-0.898l1.494-0.809
				c0.512-0.241,1.02-0.49,1.535-0.725c0.523-0.214,1.042-0.437,1.569-0.642c0.533-0.186,1.062-0.384,1.598-0.56
				c0.542-0.159,1.08-0.33,1.624-0.479c0.548-0.133,1.094-0.276,1.644-0.399c0.554-0.106,1.105-0.222,1.66-0.319l1.674-0.239
				l1.683-0.159l1.688-0.078l1.689,0.003l1.687,0.087l-0.518,0.629l-0.191-0.813c-0.072-0.266-0.101-0.554-0.15-0.832
				c-0.021-0.141-0.05-0.278-0.055-0.424l-0.028-0.432c-0.015-0.143-0.017-0.288-0.006-0.433l0.018-0.435
				c0.005-0.146,0.034-0.284,0.049-0.427c0.021-0.141,0.035-0.285,0.062-0.422c0.055-0.271,0.104-0.55,0.166-0.814l0.349-1.58
				l0.487,0.555c-1.483,0.124-2.97,0.219-4.446,0.406c-0.74,0.081-1.479,0.163-2.214,0.281c-0.735,0.115-1.474,0.202-2.205,0.34
				l-2.193,0.406l-2.174,0.492c-1.44,0.362-2.875,0.753-4.282,1.228c-0.713,0.21-1.398,0.498-2.095,0.751
				c-0.702,0.245-1.372,0.563-2.054,0.855c-1.356,0.6-2.67,1.291-3.941,2.054c-0.326,0.178-0.63,0.388-0.937,0.595l-0.923,0.619
				c-0.602,0.431-1.179,0.896-1.763,1.349l-0.828,0.739c-0.274,0.249-0.561,0.484-0.81,0.758c-0.508,0.538-1.049,1.046-1.503,1.632
				l-0.709,0.854l-0.642,0.906c-0.45,0.59-0.802,1.243-1.186,1.875c-0.201,0.312-0.349,0.652-0.517,0.983l-0.491,0.997l-0.413,1.032
				c-0.136,0.345-0.287,0.685-0.386,1.042c-0.215,0.709-0.472,1.408-0.617,2.138l-0.256,1.084c-0.074,0.364-0.123,0.732-0.186,1.099
				c-0.055,0.367-0.127,0.732-0.168,1.102l-0.104,1.11c-0.089,0.74-0.091,1.485-0.116,2.229c-0.031,1.488,0.041,2.979,0.188,4.463
				c0.046,0.745,0.182,1.479,0.277,2.219c0.088,0.741,0.245,1.472,0.381,2.205c0.073,0.366,0.134,0.734,0.216,1.099l0.259,1.089
				l0.26,1.09c0.087,0.363,0.2,0.719,0.298,1.08c0.212,0.716,0.388,1.444,0.631,2.15l0.696,2.131l-0.108,0l0.458-1.185
				c0.069-0.2,0.165-0.39,0.262-0.579l0.284-0.569c0.085-0.195,0.209-0.368,0.328-0.544l0.354-0.529
				c0.131-0.166,0.28-0.318,0.419-0.478c0.143-0.156,0.275-0.324,0.441-0.457l0.474-0.423c0.154-0.146,0.326-0.269,0.491-0.401
				c0.332-0.261,0.665-0.522,1.002-0.776C28.19,42.44,28.632,42.087,29.075,41.738z M30.393,40.696l-0.655,0.526
				c-0.658,0.529-1.311,1.065-1.981,1.579c-0.335,0.258-0.664,0.522-0.992,0.787c-0.164,0.134-0.334,0.259-0.486,0.405l-0.467,0.426
				c-0.164,0.134-0.292,0.301-0.433,0.458c-0.136,0.16-0.281,0.313-0.41,0.479l-0.345,0.528c-0.116,0.176-0.236,0.348-0.319,0.543
				l-0.275,0.567c-0.094,0.188-0.187,0.377-0.253,0.578l-0.442,1.184l-0.057,0.152l-0.051-0.151l-0.722-2.127
				c-0.252-0.706-0.436-1.432-0.657-2.147c-0.103-0.36-0.22-0.716-0.311-1.079l-0.273-1.09l-0.273-1.091
				c-0.086-0.364-0.152-0.733-0.229-1.1c-0.146-0.736-0.312-1.467-0.408-2.211c-0.104-0.742-0.249-1.479-0.303-2.229
				c-0.166-1.491-0.255-2.992-0.24-4.494c0.016-0.751,0.009-1.503,0.091-2.252l0.092-1.125c0.038-0.374,0.107-0.745,0.159-1.117
				c0.059-0.372,0.104-0.746,0.175-1.116l0.247-1.103c0.14-0.741,0.392-1.454,0.603-2.178c0.097-0.365,0.247-0.712,0.381-1.065
				l0.409-1.055l0.488-1.021c0.167-0.339,0.314-0.688,0.516-1.008c0.384-0.65,0.737-1.32,1.188-1.928l0.645-0.932l0.714-0.88
				c0.458-0.604,1.003-1.129,1.517-1.684c0.251-0.284,0.541-0.527,0.817-0.784l0.838-0.764c0.59-0.47,1.175-0.951,1.784-1.397
				l0.934-0.641c0.311-0.215,0.62-0.433,0.949-0.618c1.285-0.792,2.615-1.511,3.987-2.136c0.689-0.304,1.369-0.636,2.078-0.893
				c0.705-0.266,1.398-0.565,2.119-0.787c1.422-0.498,2.872-0.91,4.327-1.293l2.196-0.523l2.214-0.436
				c0.738-0.148,1.484-0.245,2.226-0.369c0.742-0.128,1.487-0.219,2.233-0.309c1.49-0.206,2.989-0.319,4.485-0.461l0.615-0.058
				l-0.128,0.613l-0.333,1.592c-0.057,0.264-0.099,0.519-0.148,0.778c-0.024,0.129-0.033,0.254-0.051,0.381
				c-0.012,0.126-0.038,0.254-0.041,0.379l-0.01,0.376c-0.008,0.125-0.006,0.25,0.009,0.377l0.029,0.377
				c0.003,0.125,0.033,0.252,0.054,0.379c0.049,0.254,0.075,0.507,0.147,0.763l0.188,0.765l0.162,0.657l-0.681-0.027l-1.638-0.066
				l-1.639,0.016l-1.637,0.094l-1.629,0.173l-1.619,0.25c-0.537,0.101-1.07,0.219-1.605,0.327c-0.531,0.125-1.057,0.27-1.586,0.404
				c-0.524,0.15-1.042,0.322-1.563,0.481c-0.516,0.177-1.024,0.373-1.537,0.558c-0.505,0.204-1.003,0.425-1.505,0.636l-1.467,0.714
				l-1.425,0.792l-1.373,0.875c-0.438,0.319-0.886,0.626-1.315,0.955c-0.416,0.347-0.849,0.673-1.25,1.035
				c-0.39,0.374-0.809,0.718-1.175,1.114c-0.752,0.772-1.465,1.584-2.09,2.459l-0.469,0.655c-0.157,0.219-0.283,0.456-0.427,0.682
				l-0.418,0.687l-0.365,0.716c-0.118,0.24-0.251,0.474-0.357,0.719l-0.307,0.742c-0.223,0.488-0.371,1.003-0.538,1.511
				c-0.321,1.02-0.538,2.07-0.68,3.129c-0.136,1.061-0.185,2.132-0.152,3.203c0.04,1.071,0.141,2.142,0.338,3.2
				c0.049,0.264,0.076,0.532,0.143,0.793l0.19,0.786l0.189,0.786c0.071,0.258,0.159,0.509,0.237,0.764l0.241,0.762l0.121,0.381
				l0.151,0.388L30.393,40.696z"/>
		</g>
		<g>
			
				<radialGradient id="SVGID_2_" cx="277.5425" cy="131.9238" r="20.294" gradientTransform="matrix(0.5972 -0.8021 -0.8021 -0.5972 -4.5852 365.8537)" gradientUnits="userSpaceOnUse">
				<stop  offset="0" style="stop-color:#FFFFFF"/>
				<stop  offset="0.0406" style="stop-color:#FEF5F1"/>
				<stop  offset="0.237" style="stop-color:#FAC6B4"/>
				<stop  offset="0.4253" style="stop-color:#F7A080"/>
				<stop  offset="0.6007" style="stop-color:#F48158"/>
				<stop  offset="0.7602" style="stop-color:#F36C3C"/>
				<stop  offset="0.8985" style="stop-color:#F15F2A"/>
				<stop  offset="1" style="stop-color:#F15A24"/>
			</radialGradient>
			<path fill="url(#SVGID_2_)" d="M37.919,62.537c10.97,18.647,31.95,11.541,41.143-2.829c1.786,2.264,2.57,2.353,4.958,3.475
				c-19.833,23.043-39.575,23.701-55.462,0.008C32.65,64.506,33.395,63.658,37.919,62.537z"/>
			<path fill="#4D4D4D" d="M38.732,62.326l0.698,1.12l0.208,0.334l0.221,0.307l0.442,0.612c0.149,0.204,0.289,0.412,0.445,0.612
				l0.489,0.587c0.324,0.394,0.645,0.79,1.009,1.145c0.69,0.748,1.445,1.429,2.234,2.064c0.794,0.63,1.634,1.197,2.515,1.693
				c0.883,0.491,1.802,0.919,2.756,1.251c0.479,0.161,0.953,0.339,1.449,0.446l0.735,0.186c0.246,0.059,0.499,0.09,0.747,0.136
				l0.749,0.127l0.757,0.07c0.253,0.02,0.504,0.058,0.759,0.062l0.762,0.015c1.016,0.02,2.034-0.062,3.045-0.195
				c0.508-0.054,1.005-0.177,1.509-0.262c0.501-0.099,0.993-0.244,1.491-0.363c0.492-0.14,0.978-0.306,1.468-0.458l1.439-0.547
				l1.406-0.633l1.371-0.709c0.444-0.262,0.893-0.514,1.333-0.783c0.43-0.284,0.867-0.559,1.292-0.851
				c0.416-0.305,0.839-0.602,1.25-0.915c0.4-0.326,0.808-0.644,1.203-0.976c0.385-0.344,0.776-0.682,1.156-1.033l1.105-1.088
				l1.053-1.139l0.996-1.189l0.939-1.236l0.876-1.28l0.385-0.562l0.43,0.522l0.473,0.575c0.153,0.2,0.331,0.361,0.495,0.542
				c0.084,0.086,0.165,0.181,0.257,0.255l0.269,0.234c0.172,0.168,0.381,0.28,0.57,0.424c0.096,0.068,0.207,0.122,0.309,0.183
				c0.106,0.059,0.206,0.122,0.317,0.177c0.225,0.108,0.441,0.22,0.674,0.326l1.398,0.648l0.569,0.264l-0.415,0.458
				c-0.955,1.057-1.889,2.131-2.889,3.147c-0.491,0.516-0.982,1.031-1.5,1.522c-0.515,0.493-1.01,1.005-1.54,1.481l-1.584,1.436
				l-1.641,1.373c-1.116,0.889-2.249,1.757-3.432,2.556c-0.577,0.422-1.197,0.78-1.798,1.165c-0.596,0.393-1.233,0.721-1.854,1.073
				c-1.252,0.688-2.551,1.292-3.881,1.821c-0.327,0.145-0.667,0.256-1.007,0.371l-1.016,0.346c-0.684,0.21-1.38,0.382-2.072,0.564
				l-1.055,0.205c-0.352,0.065-0.701,0.147-1.059,0.178c-0.713,0.077-1.421,0.193-2.139,0.199l-1.074,0.044l-1.074-0.037
				c-0.717-0.001-1.427-0.113-2.138-0.189c-0.358-0.028-0.706-0.114-1.058-0.179l-1.053-0.208l-1.034-0.287
				c-0.344-0.098-0.692-0.181-1.024-0.313c-0.669-0.25-1.354-0.462-1.997-0.775l-0.978-0.438c-0.321-0.155-0.63-0.333-0.946-0.498
				c-0.313-0.172-0.633-0.329-0.938-0.513l-0.907-0.566c-0.615-0.362-1.183-0.792-1.763-1.206c-1.149-0.839-2.24-1.757-3.279-2.726
				c-0.538-0.465-1.016-0.993-1.521-1.492c-0.51-0.495-0.973-1.035-1.448-1.562c-0.235-0.266-0.478-0.524-0.707-0.796l-0.674-0.825
				c-0.452-0.547-0.901-1.096-1.317-1.671c-0.418-0.573-0.866-1.124-1.26-1.715l-1.207-1.751l-0.091-0.132l0.156,0.045l1.149,0.334
				c0.19,0.063,0.386,0.099,0.582,0.135l0.587,0.112c0.195,0.048,0.394,0.053,0.592,0.065l0.596,0.037
				c0.199-0.003,0.397-0.027,0.596-0.041c0.198-0.018,0.398-0.021,0.593-0.069l0.587-0.114c0.197-0.032,0.389-0.091,0.583-0.139
				c0.387-0.1,0.774-0.201,1.159-0.309c0.77-0.218,1.547-0.411,2.321-0.611L38.732,62.326z M37.11,62.76
				c-0.502,0.135-1.005,0.268-1.504,0.415c-0.384,0.114-0.77,0.218-1.156,0.323c-0.194,0.051-0.385,0.112-0.583,0.146l-0.589,0.122
				c-0.194,0.05-0.396,0.056-0.596,0.077c-0.2,0.015-0.4,0.042-0.6,0.048l-0.603-0.03c-0.201-0.01-0.402-0.013-0.599-0.059
				l-0.593-0.106c-0.198-0.034-0.396-0.068-0.588-0.129l-1.159-0.322l0.065-0.086l1.226,1.733c0.399,0.584,0.854,1.129,1.277,1.695
				c0.422,0.568,0.876,1.111,1.333,1.65l0.681,0.813c0.23,0.268,0.476,0.523,0.713,0.785c0.48,0.519,0.946,1.05,1.459,1.536
				c0.509,0.491,0.991,1.009,1.53,1.465c1.044,0.951,2.136,1.848,3.285,2.666c0.58,0.402,1.146,0.822,1.758,1.172l0.903,0.549
				c0.303,0.178,0.622,0.329,0.932,0.495c0.313,0.159,0.621,0.331,0.939,0.48l0.968,0.419c0.636,0.301,1.312,0.501,1.972,0.739
				c0.329,0.126,0.671,0.203,1.01,0.295l1.017,0.269l1.035,0.191c0.345,0.06,0.688,0.139,1.038,0.163
				c0.698,0.066,1.393,0.168,2.095,0.16l1.05,0.023l1.049-0.056c0.701-0.013,1.394-0.137,2.088-0.22
				c0.349-0.034,0.69-0.118,1.034-0.186l1.029-0.211c0.675-0.188,1.354-0.364,2.021-0.577l0.991-0.351
				c0.331-0.116,0.663-0.229,0.982-0.376c1.297-0.534,2.565-1.141,3.788-1.832c0.607-0.353,1.227-0.682,1.81-1.077
				c0.587-0.386,1.191-0.744,1.755-1.167c1.155-0.801,2.263-1.67,3.353-2.56l1.603-1.374l1.548-1.437
				c0.518-0.477,1.002-0.99,1.505-1.482c0.504-0.491,0.985-1.007,1.464-1.523c0.977-1.016,1.89-2.092,2.822-3.148l0.154,0.722
				l-1.398-0.627c-0.235-0.104-0.476-0.224-0.713-0.336c-0.12-0.057-0.238-0.129-0.357-0.193c-0.117-0.068-0.24-0.126-0.353-0.204
				c-0.222-0.162-0.469-0.297-0.669-0.484l-0.313-0.267c-0.108-0.086-0.197-0.186-0.292-0.282c-0.184-0.195-0.387-0.38-0.548-0.585
				l-0.511-0.605l0.814-0.041l-0.889,1.333l-0.953,1.287l-1.015,1.24l-1.073,1.189l-1.129,1.138
				c-0.388,0.367-0.788,0.721-1.182,1.083c-0.405,0.349-0.823,0.683-1.234,1.024c-0.421,0.329-0.855,0.642-1.283,0.963
				c-0.438,0.308-0.888,0.599-1.331,0.899c-0.454,0.285-0.917,0.553-1.376,0.83l-1.419,0.757l-1.461,0.678l-1.501,0.591
				c-0.512,0.166-1.02,0.346-1.536,0.5c-0.522,0.132-1.039,0.29-1.567,0.401c-0.531,0.097-1.056,0.231-1.593,0.296
				c-1.07,0.155-2.152,0.254-3.238,0.247l-0.814-0.007c-0.272-0.002-0.542-0.038-0.813-0.056l-0.813-0.067l-0.807-0.126
				c-0.269-0.046-0.54-0.077-0.806-0.137l-0.795-0.19c-0.535-0.11-1.049-0.294-1.568-0.462c-1.035-0.347-2.033-0.798-2.993-1.316
				c-0.957-0.524-1.87-1.125-2.731-1.792c-0.855-0.671-1.673-1.393-2.419-2.181c-0.393-0.376-0.74-0.792-1.089-1.206l-0.526-0.62
				c-0.17-0.212-0.327-0.438-0.491-0.656l-0.487-0.662l-0.242-0.331l-0.213-0.332l-0.85-1.328L37.11,62.76z"/>
		</g>
		<g>
			<radialGradient id="SVGID_3_" cx="62.2207" cy="72.6338" r="44.6893" gradientUnits="userSpaceOnUse">
				<stop  offset="0" style="stop-color:#FFFFFF"/>
				<stop  offset="0.1587" style="stop-color:#FFF1E1"/>
				<stop  offset="0.5052" style="stop-color:#FFCC95"/>
				<stop  offset="1" style="stop-color:#FF931E"/>
			</radialGradient>
			<path fill="url(#SVGID_3_)" d="M101.969,75.058c-1.124,2.368-2.092,4.95-4.043,7.134c-26.993,30.22-80.022,25.067-74.127-11.441
				c1.61-9.978,12.099-18.806,30.923-28.257c-2.832-3.38-3.533-6.714-2.866-9.294c-17.678,7.037-29.889,17.531-35.278,26.52
				c-3.883,6.477-4.135,13.212-3.444,19.748c3.407,32.243,52.272,52.566,98.474,2.009C106.121,80.345,105.046,79.708,101.969,75.058
				z"/>
			<g>
				<path fill="#4D4D4D" d="M101.969,75.058c-0.655,1.435-1.248,2.899-1.997,4.294c-0.176,0.355-0.395,0.686-0.591,1.03
					c-0.205,0.339-0.442,0.658-0.662,0.989c-0.243,0.314-0.491,0.622-0.745,0.932l-0.791,0.88c-2.114,2.354-4.463,4.492-6.944,6.46
					c-2.48,1.971-5.142,3.71-7.903,5.271c-2.777,1.53-5.66,2.883-8.646,3.967c-2.98,1.103-6.051,1.961-9.175,2.574
					c-3.127,0.59-6.305,0.939-9.496,0.982c-3.19,0.047-6.391-0.214-9.537-0.821c-3.136-0.638-6.233-1.597-9.111-3.063
					c-2.875-1.454-5.557-3.372-7.743-5.792c-2.188-2.413-3.852-5.308-4.859-8.411c-0.515-1.549-0.835-3.155-1.038-4.767
					c-0.202-1.613-0.265-3.241-0.188-4.858c0.014-0.811,0.114-1.612,0.18-2.418l0.162-1.199l0.041-0.3l0.02-0.149l0.005-0.038
					l0.016-0.083l0.016-0.072l0.124-0.579l0.249-1.157l0.391-1.204c0.236-0.826,0.613-1.546,0.942-2.303
					c1.419-2.977,3.501-5.535,5.767-7.819c2.273-2.292,4.801-4.277,7.397-6.132c0.648-0.465,1.298-0.931,1.968-1.36l1.998-1.312
					c1.357-0.83,2.7-1.687,4.086-2.46c2.745-1.605,5.562-3.064,8.383-4.512l-0.309,1.49l-0.811-1.06l-0.202-0.266l-0.179-0.284
					l-0.354-0.573c-0.114-0.193-0.244-0.376-0.345-0.579l-0.296-0.612l-0.294-0.613l-0.229-0.648l-0.225-0.649l-0.153-0.677
					c-0.047-0.227-0.104-0.451-0.14-0.681l-0.064-0.699c-0.015-0.234-0.056-0.465-0.033-0.702l0.031-0.709
					c-0.001-0.237,0.047-0.471,0.09-0.706l0.131-0.704l1.313,1.157c-7.259,2.927-14.216,6.642-20.498,11.281
					c-3.137,2.319-6.099,4.874-8.771,7.691c-0.345,0.343-0.658,0.713-0.98,1.075c-0.32,0.364-0.646,0.723-0.96,1.091l-0.909,1.131
					c-0.15,0.189-0.306,0.375-0.451,0.567l-0.424,0.586c-0.278,0.393-0.573,0.776-0.839,1.176l-0.778,1.213l-0.182,0.28
					l-0.183,0.323l-0.365,0.646c-0.248,0.432-0.423,0.839-0.64,1.259c-1.632,3.433-2.367,7.253-2.435,11.098
					c-0.034,1.926,0.077,3.863,0.271,5.801l0.18,1.45l0.237,1.403l0.302,1.408c0.113,0.467,0.243,0.929,0.363,1.395
					c1.049,3.698,2.763,7.207,5.014,10.333c2.25,3.129,5.031,5.876,8.164,8.139c3.136,2.26,6.609,4.058,10.267,5.352
					c3.659,1.299,7.502,2.064,11.381,2.396c3.883,0.302,7.807,0.166,11.673-0.4c3.871-0.547,7.68-1.522,11.387-2.791
					c3.696-1.301,7.306-2.872,10.761-4.744c3.463-1.855,6.81-3.937,10.016-6.222c3.21-2.281,6.275-4.769,9.218-7.393
					c2.942-2.627,5.755-5.401,8.451-8.287l0.086,0.264c-0.493-0.109-0.985-0.218-1.476-0.34c-0.491-0.118-0.98-0.247-1.466-0.395
					c-0.243-0.075-0.485-0.146-0.723-0.237c-0.24-0.083-0.478-0.172-0.71-0.277c-0.236-0.094-0.462-0.212-0.688-0.33
					c-0.229-0.11-0.437-0.261-0.656-0.39c-0.204-0.153-0.417-0.293-0.607-0.461c-0.191-0.167-0.388-0.33-0.56-0.516
					c-0.182-0.176-0.354-0.362-0.516-0.556c-0.17-0.188-0.326-0.387-0.48-0.586c-0.312-0.397-0.605-0.808-0.888-1.225
					C102.517,75.904,102.245,75.48,101.969,75.058z M101.969,75.058c0.288,0.415,0.57,0.832,0.868,1.237
					c0.292,0.41,0.597,0.811,0.917,1.198c0.159,0.194,0.319,0.388,0.493,0.569c0.166,0.188,0.341,0.368,0.525,0.537
					c0.176,0.179,0.373,0.333,0.564,0.492c0.192,0.16,0.405,0.292,0.607,0.437c0.218,0.12,0.424,0.262,0.652,0.364
					c0.224,0.109,0.447,0.22,0.682,0.305c0.229,0.097,0.466,0.178,0.704,0.254c0.236,0.083,0.478,0.147,0.719,0.214
					c0.482,0.133,0.971,0.248,1.462,0.352c0.49,0.109,0.985,0.202,1.477,0.302l0.273,0.056l-0.188,0.209
					c-2.643,2.945-5.41,5.784-8.313,8.482c-2.904,2.695-5.938,5.259-9.126,7.622c-3.188,2.363-6.518,4.545-9.997,6.476
					c-3.475,1.937-7.117,3.576-10.861,4.945c-3.754,1.336-7.626,2.378-11.579,2.986c-3.949,0.627-7.973,0.817-11.976,0.554
					c-3.999-0.293-7.981-1.034-11.794-2.335c-3.809-1.297-7.459-3.113-10.746-5.465c-3.29-2.344-6.226-5.205-8.612-8.482
					c-2.389-3.274-4.222-6.964-5.355-10.867c-0.131-0.491-0.271-0.979-0.394-1.472l-0.329-1.489l-0.265-1.52l-0.194-1.491
					c-0.214-1.993-0.339-4.009-0.305-6.037c0.062-4.046,0.834-8.169,2.597-11.896c0.233-0.459,0.458-0.958,0.701-1.384l0.363-0.646
					l0.182-0.323l0.218-0.344l0.82-1.284c0.281-0.422,0.587-0.825,0.879-1.238l0.444-0.616c0.151-0.203,0.313-0.396,0.47-0.594
					l0.946-1.182c0.326-0.385,0.664-0.758,0.996-1.137c0.334-0.376,0.66-0.762,1.015-1.117c2.763-2.925,5.806-5.559,9.02-7.945
					c3.214-2.389,6.614-4.511,10.122-6.421c3.51-1.907,7.136-3.592,10.84-5.077l1.641-0.658l-0.329,1.814l-0.098,0.538
					c-0.034,0.179-0.076,0.356-0.071,0.542l-0.025,0.552c-0.023,0.183,0.016,0.37,0.027,0.556l0.047,0.557
					c0.028,0.186,0.079,0.37,0.116,0.554l0.121,0.554l0.189,0.542l0.188,0.543l0.253,0.524l0.25,0.525
					c0.085,0.174,0.202,0.335,0.301,0.504l0.309,0.501l0.154,0.25l0.18,0.236l0.72,0.947l0.729,0.96l-1.038,0.531
					c-2.795,1.427-5.587,2.866-8.294,4.442c-1.37,0.763-2.694,1.594-4.034,2.401l-1.966,1.274c-0.661,0.417-1.297,0.867-1.933,1.318
					c-2.546,1.794-5.012,3.709-7.199,5.889c-2.182,2.171-4.153,4.577-5.47,7.304c-0.302,0.688-0.665,1.37-0.862,2.067l-0.355,1.041
					l-0.256,1.155l-0.128,0.578l-0.016,0.072c0.001-0.009-0.015,0.07,0.001-0.01l-0.005,0.036l-0.02,0.143l-0.041,0.287
					l-0.162,1.144c-0.065,0.766-0.168,1.531-0.185,2.298c-0.089,1.534-0.049,3.072,0.123,4.591c0.173,1.518,0.454,3.026,0.917,4.479
					c0.908,2.91,2.421,5.622,4.446,7.911c2.022,2.294,4.535,4.144,7.266,5.567c2.733,1.436,5.709,2.398,8.742,3.055
					c3.043,0.625,6.161,0.919,9.281,0.91c3.121-0.005,6.242-0.308,9.321-0.851c3.079-0.551,6.121-1.329,9.081-2.36
					c2.967-1.011,5.84-2.292,8.618-3.751c2.762-1.489,5.433-3.16,7.933-5.067c2.504-1.899,4.865-3.992,7.037-6.271l0.814-0.859
					c0.253-0.294,0.508-0.594,0.756-0.896c0.225-0.32,0.469-0.629,0.68-0.959c0.204-0.336,0.431-0.658,0.614-1.006
					C100.645,77.925,101.277,76.475,101.969,75.058z"/>
			</g>
		</g>
	</g>
	<g>
		<g>
			<path fill="#3FA9F5" d="M166.268,87.3h-29.72V24.358h29.72v11.87h-18.66v13.666h14.52v11.534h-14.52V75.43h18.66V87.3z
				 M138.548,85.3h25.72v-7.87h-18.66V59.428h14.52v-7.534h-14.52V34.229h18.66v-7.87h-25.72V85.3z"/>
		</g>
		<g>
			<path fill="#3FA9F5" d="M210.277,87.3h-5.65c-0.899,0-1.682-0.22-2.328-0.653c-0.611-0.409-1.173-1.058-1.715-1.982
				l-19.661-35.026c0.009,0.496,0.014,0.971,0.014,1.424V87.3h-9.95V24.358h5.74c0.436,0,0.805,0.024,1.129,0.075
				c0.42,0.065,0.808,0.221,1.154,0.462c0.299,0.21,0.582,0.481,0.84,0.807c0.236,0.297,0.479,0.668,0.746,1.135l19.754,35.101
				c-0.015-0.591-0.022-1.165-0.022-1.719v-35.86h9.95V87.3z M178.492,41.221l23.827,42.448c0.465,0.792,0.853,1.155,1.094,1.316
				c0.315,0.212,0.712,0.314,1.214,0.314h3.65V26.358h-5.95v33.86c0,0.884,0.02,1.815,0.059,2.795c0.04,0.983,0.099,2,0.178,3.052
				l0.338,4.486l-24.047-42.729c-0.209-0.367-0.403-0.665-0.572-0.877c-0.138-0.174-0.28-0.313-0.42-0.411
				c-0.095-0.066-0.195-0.106-0.315-0.125c-0.218-0.034-0.494-0.051-0.821-0.051h-3.74V85.3h5.95V51.063
				c0-0.802-0.015-1.673-0.044-2.614c-0.029-0.942-0.074-1.898-0.133-2.869L178.492,41.221z"/>
		</g>
		<g>
			<path fill="#3FA9F5" d="M239.457,87.972c-3.729,0-7.159-0.824-10.192-2.45c-3.018-1.617-5.633-3.896-7.771-6.774
				c-2.121-2.853-3.779-6.279-4.926-10.183c-1.142-3.879-1.721-8.171-1.721-12.757c0-4.634,0.553-8.95,1.643-12.828
				c1.096-3.903,2.687-7.315,4.727-10.143c2.058-2.853,4.586-5.113,7.515-6.718c2.946-1.614,6.282-2.433,9.915-2.433
				c1.876,0,3.657,0.216,5.292,0.641c1.631,0.425,3.16,1.02,4.544,1.768c1.382,0.748,2.667,1.647,3.819,2.674
				c1.146,1.022,2.199,2.157,3.129,3.374l0.367,0.48l-2.863,6.176c-0.516,1.155-1.25,1.891-2.176,2.174
				c-0.963,0.293-2.015,0.002-3.039-0.866c-0.703-0.601-1.391-1.141-2.047-1.606c-0.64-0.454-1.33-0.854-2.049-1.19
				c-0.708-0.33-1.494-0.588-2.335-0.768c-0.848-0.181-1.848-0.272-2.971-0.272c-1.828,0-3.502,0.447-4.978,1.328
				c-1.498,0.895-2.795,2.187-3.857,3.84c-1.085,1.69-1.935,3.765-2.524,6.166c-0.599,2.432-0.902,5.191-0.902,8.203
				c0,3.262,0.333,6.209,0.989,8.76c0.648,2.522,1.569,4.67,2.738,6.385c1.145,1.682,2.528,2.975,4.111,3.845
				c1.572,0.866,3.352,1.304,5.292,1.304c1.32,0,2.503-0.185,3.517-0.549c0.897-0.323,1.787-0.75,2.653-1.272v-8.694h-3.92
				c-0.894,0-1.641-0.362-2.161-1.046c-0.463-0.609-0.699-1.371-0.699-2.264v-8.014h16.939v26.566l-0.285,0.292
				c-2.304,2.353-4.802,4.103-7.424,5.199C245.188,87.416,242.379,87.972,239.457,87.972z M238.646,25.687
				c-3.293,0-6.306,0.736-8.954,2.187c-2.665,1.461-4.971,3.525-6.854,6.134c-1.903,2.637-3.391,5.837-4.423,9.514
				c-1.041,3.702-1.568,7.836-1.568,12.287c0,4.394,0.552,8.496,1.64,12.192c1.081,3.677,2.632,6.892,4.613,9.555
				c1.961,2.641,4.354,4.728,7.11,6.205c2.74,1.468,5.851,2.212,9.248,2.212c2.655,0,5.205-0.504,7.579-1.498
				c2.268-0.949,4.446-2.45,6.481-4.467V56.262h-12.939v6.014c0,0.452,0.095,0.796,0.291,1.053c0.117,0.155,0.258,0.257,0.568,0.257
				h5.92v11.791l-0.456,0.296c-1.137,0.737-2.321,1.33-3.521,1.761c-1.231,0.443-2.643,0.667-4.194,0.667
				c-2.281,0-4.386-0.522-6.257-1.552c-1.861-1.023-3.476-2.527-4.799-4.471c-1.299-1.906-2.316-4.266-3.022-7.014
				c-0.698-2.712-1.052-5.828-1.052-9.257c0-3.172,0.323-6.093,0.959-8.681c0.643-2.615,1.579-4.893,2.784-6.769
				c1.229-1.916,2.749-3.421,4.514-4.477c1.79-1.069,3.81-1.611,6.003-1.611c1.263,0,2.403,0.106,3.388,0.316
				c0.99,0.211,1.92,0.518,2.764,0.912c0.828,0.386,1.622,0.848,2.361,1.371c0.706,0.501,1.441,1.078,2.187,1.715
				c0.469,0.397,0.847,0.569,1.157,0.476c0.349-0.106,0.665-0.473,0.94-1.089l2.357-5.084c-0.759-0.938-1.599-1.819-2.5-2.624
				c-1.037-0.924-2.194-1.734-3.44-2.408c-1.243-0.672-2.621-1.207-4.096-1.591C241.964,25.88,240.353,25.687,238.646,25.687z"/>
		</g>
		<g>
			<path fill="#3FA9F5" d="M288.696,87.3h-27.83V24.358h11v50.694h16.83V87.3z M262.866,85.3h23.83v-8.248h-16.83V26.358h-7V85.3z"
				/>
		</g>
		<g>
			<path fill="#3FA9F5" d="M303.246,87.3h-11.061V24.358h11.061V87.3z M294.186,85.3h7.061V26.358h-7.061V85.3z"/>
		</g>
		<g>
			<path fill="#3FA9F5" d="M322.556,87.972c-1.465,0-2.946-0.211-4.4-0.626c-1.437-0.411-2.839-0.99-4.168-1.724
				c-1.326-0.731-2.592-1.62-3.761-2.644c-1.174-1.026-2.217-2.189-3.102-3.455l-0.323-0.462l2.869-6.48
				c0.3-0.612,0.682-1.099,1.152-1.482c1.221-0.998,2.75-0.878,4.164,0.442c0.592,0.553,1.272,1.16,2.041,1.822
				c0.723,0.623,1.577,1.204,2.54,1.727c0.876,0.477,1.962,0.719,3.228,0.719c1.81,0,3.156-0.545,4.115-1.666
				c0.985-1.151,1.484-2.953,1.484-5.355c0-1.349-0.24-2.434-0.713-3.225c-0.495-0.826-1.151-1.529-1.951-2.089
				c-0.851-0.595-1.84-1.115-2.941-1.546c-1.196-0.468-2.433-0.991-3.677-1.553c-1.283-0.579-2.553-1.284-3.772-2.094
				c-1.278-0.85-2.425-1.98-3.41-3.361c-0.979-1.369-1.779-3.079-2.379-5.082c-0.596-1.988-0.897-4.473-0.897-7.385
				c0-2.354,0.337-4.669,1.002-6.882c0.672-2.232,1.674-4.245,2.978-5.982c1.32-1.759,2.965-3.193,4.889-4.264
				c1.952-1.087,4.209-1.638,6.711-1.638c2.767,0,5.367,0.609,7.729,1.809c2.354,1.198,4.371,2.883,5.997,5.009l0.336,0.44
				l-2.415,6.44c-0.352,0.812-0.698,1.371-1.078,1.757c-0.929,0.94-2.481,1.067-3.911-0.15c-0.495-0.42-1.078-0.88-1.732-1.365
				c-0.629-0.466-1.365-0.908-2.187-1.313c-0.738-0.364-1.629-0.548-2.648-0.548c-1.775,0-3.05,0.516-3.898,1.577
				c-0.89,1.114-1.341,2.621-1.341,4.479c0,1.142,0.234,2.083,0.695,2.796c0.496,0.768,1.162,1.444,1.979,2.009
				c0.87,0.603,1.876,1.149,2.988,1.625c1.184,0.505,2.419,1.07,3.674,1.678c1.286,0.625,2.551,1.365,3.761,2.198
				c1.263,0.87,2.406,1.975,3.396,3.287c0.994,1.317,1.803,2.937,2.404,4.813c0.6,1.868,0.903,4.154,0.903,6.793
				c0,2.854-0.361,5.568-1.074,8.065c-0.716,2.519-1.771,4.757-3.135,6.652c-1.382,1.92-3.114,3.453-5.149,4.558
				C327.477,87.409,325.131,87.972,322.556,87.972z M309.092,78.83c0.718,0.959,1.541,1.847,2.452,2.643
				c1.062,0.929,2.208,1.736,3.409,2.397c1.198,0.661,2.46,1.183,3.752,1.552c1.275,0.364,2.571,0.549,3.85,0.549
				c2.239,0,4.264-0.482,6.019-1.433c1.768-0.959,3.275-2.294,4.479-3.968c1.228-1.707,2.182-3.736,2.835-6.032
				c0.662-2.319,0.997-4.849,0.997-7.517c0-2.432-0.272-4.512-0.808-6.183c-0.532-1.662-1.237-3.082-2.096-4.218
				c-0.861-1.14-1.848-2.097-2.934-2.844c-1.128-0.777-2.305-1.465-3.5-2.046c-1.225-0.594-2.431-1.146-3.585-1.639
				c-1.237-0.528-2.361-1.14-3.342-1.819c-1.033-0.715-1.881-1.58-2.521-2.568c-0.673-1.043-1.015-2.349-1.015-3.882
				c0-2.323,0.598-4.25,1.778-5.727c1.235-1.545,3.072-2.329,5.461-2.329c1.329,0,2.517,0.254,3.533,0.754
				c0.928,0.458,1.767,0.962,2.493,1.5c0.69,0.512,1.309,1,1.837,1.449c0.438,0.373,0.689,0.413,0.777,0.413
				c0.24,0,0.343-0.072,0.413-0.143c0.138-0.141,0.364-0.447,0.649-1.104l2.003-5.345c-1.38-1.685-3.051-3.033-4.975-4.012
				c-2.078-1.056-4.373-1.592-6.822-1.592c-2.157,0-4.087,0.466-5.738,1.385c-1.677,0.934-3.111,2.184-4.262,3.717
				c-1.163,1.549-2.059,3.351-2.663,5.358c-0.609,2.025-0.917,4.146-0.917,6.305c0,2.718,0.273,5.009,0.813,6.811
				c0.537,1.792,1.24,3.303,2.091,4.494c0.843,1.182,1.815,2.143,2.89,2.857c1.129,0.751,2.302,1.402,3.487,1.937
				c1.214,0.549,2.419,1.058,3.583,1.514c1.248,0.488,2.378,1.084,3.359,1.77c1.031,0.723,1.879,1.631,2.52,2.7
				c0.662,1.106,0.997,2.537,0.997,4.252c0,2.893-0.661,5.132-1.965,6.656c-1.344,1.57-3.24,2.366-5.635,2.366
				c-1.604,0-3.012-0.324-4.184-0.961c-1.087-0.59-2.059-1.253-2.889-1.969c-0.792-0.681-1.492-1.307-2.101-1.875
				c-0.394-0.368-0.759-0.57-1.027-0.57c-0.104,0-0.271,0.022-0.506,0.215c-0.251,0.205-0.449,0.459-0.606,0.779L309.092,78.83z"/>
		</g>
		<g>
			<path fill="#3FA9F5" d="M382.715,87.3h-11.06V61.05h-17.17V87.3h-11.061V24.358h11.061V50.23h17.17V24.358h11.06V87.3z
				 M373.655,85.3h7.06V26.358h-7.06V52.23h-21.17V26.358h-7.061V85.3h7.061V59.05h21.17V85.3z"/>
		</g>
		<g>
			<path fill="#3FA9F5" d="M409.436,87.972c-3.428,0-6.558-0.832-9.303-2.473c-2.719-1.625-5.058-3.912-6.953-6.799
				c-1.873-2.851-3.331-6.272-4.333-10.169c-0.997-3.868-1.501-8.149-1.501-12.724c0-3.07,0.242-6.031,0.72-8.801
				c0.479-2.785,1.188-5.387,2.109-7.734c0.926-2.359,2.057-4.519,3.362-6.417c1.316-1.916,2.83-3.576,4.498-4.934
				c1.68-1.366,3.539-2.425,5.525-3.146c1.99-0.723,4.139-1.089,6.386-1.089c1.683,0,3.301,0.21,4.81,0.624
				c1.5,0.412,2.924,0.994,4.231,1.731c1.305,0.737,2.526,1.64,3.631,2.686c1.095,1.037,2.091,2.181,2.962,3.401l0.357,0.5
				l-3.315,6.34c-0.217,0.44-0.514,0.855-0.871,1.211c-0.324,0.324-0.909,0.711-1.846,0.711c-0.748,0-1.472-0.335-2.152-0.997
				c-0.471-0.458-1.057-0.977-1.741-1.543c-0.634-0.525-1.455-1.014-2.439-1.452c-0.936-0.417-2.167-0.627-3.658-0.627
				c-1.626,0-3.137,0.417-4.49,1.24c-1.377,0.837-2.583,2.077-3.586,3.686c-1.026,1.648-1.837,3.716-2.411,6.147
				c-0.579,2.461-0.873,5.309-0.873,8.464c0,3.181,0.317,6.044,0.944,8.511c0.62,2.445,1.475,4.529,2.542,6.196
				c1.042,1.626,2.265,2.869,3.634,3.694c1.345,0.811,2.801,1.222,4.33,1.222c0.963,0,1.84-0.066,2.607-0.196
				c0.735-0.124,1.424-0.336,2.05-0.632c0.63-0.298,1.233-0.689,1.792-1.161c0.576-0.486,1.169-1.116,1.766-1.872
				c0.304-0.351,0.597-0.617,0.901-0.83c0.411-0.287,0.866-0.433,1.354-0.433c0.585,0,1.422,0.208,2.089,1.197l3.914,5.847
				l-0.3,0.535c-1.836,3.271-4.157,5.794-6.899,7.5C416.521,87.102,413.209,87.972,409.436,87.972z M409.945,25.687
				c-2.014,0-3.933,0.326-5.704,0.969c-1.776,0.646-3.44,1.593-4.946,2.818c-1.52,1.237-2.903,2.756-4.111,4.516
				c-1.219,1.773-2.278,3.797-3.148,6.015c-0.871,2.221-1.544,4.692-2,7.343c-0.458,2.658-0.69,5.504-0.69,8.461
				c0,4.406,0.484,8.52,1.438,12.225c0.948,3.683,2.316,6.903,4.068,9.57c1.728,2.632,3.849,4.711,6.307,6.18
				c2.431,1.453,5.216,2.189,8.277,2.189c3.395,0,6.351-0.769,8.786-2.285c2.306-1.434,4.291-3.536,5.907-6.252l-3.224-4.817
				c-0.21-0.312-0.358-0.312-0.429-0.312c-0.055,0-0.117,0.009-0.207,0.071c-0.172,0.12-0.343,0.278-0.509,0.468
				c-0.647,0.823-1.336,1.55-2.014,2.123c-0.691,0.584-1.44,1.069-2.227,1.442c-0.793,0.375-1.658,0.643-2.573,0.796
				c-0.876,0.148-1.866,0.224-2.94,0.224c-1.897,0-3.701-0.508-5.362-1.509c-1.635-0.984-3.077-2.44-4.286-4.328
				c-1.184-1.848-2.125-4.13-2.797-6.783c-0.667-2.627-1.005-5.656-1.005-9.002c0-3.31,0.312-6.312,0.926-8.923
				c0.624-2.644,1.518-4.913,2.66-6.747c1.169-1.877,2.597-3.336,4.245-4.337c1.671-1.016,3.531-1.531,5.529-1.531
				c1.773,0,3.278,0.269,4.472,0.8c1.151,0.513,2.127,1.098,2.901,1.739c0.724,0.6,1.349,1.154,1.858,1.648
				c0.203,0.197,0.499,0.432,0.759,0.432c0.306,0,0.398-0.092,0.433-0.127c0.203-0.202,0.371-0.438,0.5-0.701l2.752-5.264
				c-0.707-0.933-1.495-1.812-2.348-2.619c-0.986-0.934-2.076-1.74-3.239-2.396c-1.164-0.656-2.436-1.176-3.778-1.544
				C412.89,25.873,411.449,25.687,409.945,25.687z"/>
		</g>
		<g>
			<path fill="#3FA9F5" d="M449.186,87.972c-3.502,0-6.739-0.843-9.62-2.507c-2.852-1.646-5.331-3.94-7.366-6.82
				c-2.017-2.851-3.596-6.274-4.691-10.176c-1.09-3.878-1.643-8.138-1.643-12.661c0-4.522,0.553-8.775,1.643-12.64
				c1.096-3.887,2.674-7.304,4.691-10.155c2.035-2.877,4.513-5.172,7.366-6.819c2.882-1.664,6.119-2.507,9.62-2.507
				s6.738,0.843,9.62,2.506c2.855,1.649,5.33,3.953,7.354,6.845c2.006,2.869,3.579,6.292,4.672,10.172
				c1.09,3.865,1.643,8.104,1.643,12.598c0,4.523-0.553,8.783-1.643,12.661c-1.095,3.897-2.667,7.32-4.674,10.174
				c-2.025,2.88-4.5,5.175-7.353,6.822C455.924,87.129,452.688,87.972,449.186,87.972z M449.186,25.687
				c-3.146,0-6.046,0.753-8.62,2.239c-2.601,1.502-4.867,3.603-6.733,6.242c-1.885,2.665-3.365,5.876-4.399,9.543
				c-1.041,3.688-1.568,7.758-1.568,12.097c0,4.34,0.528,8.418,1.568,12.12c1.034,3.681,2.514,6.898,4.398,9.562
				c1.868,2.643,4.133,4.743,6.733,6.243c2.573,1.486,5.474,2.239,8.62,2.239s6.047-0.753,8.62-2.239c2.6-1.5,4.86-3.6,6.717-6.24
				c1.876-2.668,3.351-5.886,4.384-9.564c1.041-3.702,1.568-7.78,1.568-12.12c0-4.311-0.527-8.367-1.568-12.055
				c-1.033-3.665-2.509-6.884-4.386-9.568c-1.856-2.651-4.116-4.757-6.716-6.26C455.232,26.44,452.332,25.687,449.186,25.687z
				 M449.186,77.346c-2.209,0-4.225-0.519-5.992-1.542c-1.751-1.013-3.253-2.486-4.465-4.378c-1.187-1.852-2.104-4.125-2.726-6.757
				c-0.615-2.595-0.927-5.576-0.927-8.861c0-3.255,0.312-6.223,0.927-8.819c0.623-2.629,1.539-4.908,2.724-6.773
				c1.212-1.906,2.715-3.388,4.468-4.403c1.768-1.023,3.784-1.542,5.992-1.542c2.209,0,4.221,0.519,5.978,1.542
				c1.743,1.016,3.24,2.497,4.451,4.402c1.186,1.866,2.102,4.145,2.724,6.774c0.615,2.597,0.927,5.564,0.927,8.819
				c0,3.285-0.312,6.266-0.927,8.861c-0.623,2.631-1.54,4.904-2.726,6.756c-1.211,1.891-2.708,3.364-4.449,4.377
				C453.408,76.827,451.396,77.346,449.186,77.346z M449.186,36.271c-1.852,0-3.53,0.428-4.989,1.272
				c-1.472,0.853-2.745,2.112-3.782,3.745c-1.065,1.677-1.895,3.75-2.465,6.162c-0.58,2.446-0.874,5.258-0.874,8.358
				c0,3.129,0.294,5.956,0.874,8.4c0.57,2.412,1.399,4.477,2.463,6.138c1.039,1.621,2.312,2.875,3.784,3.727
				c1.458,0.845,3.137,1.273,4.989,1.273c1.852,0,3.524-0.428,4.971-1.271c1.464-0.853,2.733-2.107,3.772-3.729
				c1.064-1.661,1.893-3.727,2.463-6.138c0.58-2.445,0.874-5.271,0.874-8.401c0-3.1-0.294-5.912-0.874-8.358
				c-0.571-2.412-1.4-4.485-2.466-6.162c-1.038-1.633-2.306-2.894-3.77-3.747C452.709,36.698,451.037,36.271,449.186,36.271z"/>
		</g>
		<g>
			<path fill="#3FA9F5" d="M527.075,87.3h-9.949V49.678l-10.305,27.357c-1.044,2.792-2.798,3.378-4.086,3.378h-1.26
				c-0.941,0-1.786-0.314-2.511-0.934c-0.671-0.574-1.203-1.402-1.581-2.46l-10.358-27.473V87.3h-9.95V24.358h7.841
				c0.413,0,0.785,0.016,1.112,0.046c0.436,0.041,0.833,0.159,1.182,0.349c0.362,0.199,0.686,0.495,0.963,0.883
				c0.243,0.34,0.465,0.778,0.678,1.341l12.182,32.512c0.378,0.975,0.735,1.989,1.06,3.006c0.002-0.003,0.003-0.007,0.004-0.011
				c0.336-1.082,0.701-2.136,1.087-3.131l12.087-32.37c0.216-0.574,0.447-1.019,0.706-1.364c0.287-0.381,0.611-0.671,0.966-0.865
				c0.346-0.189,0.736-0.307,1.161-0.349c0.319-0.031,0.695-0.047,1.133-0.047h7.84V87.3z M519.126,85.3h5.949V26.358h-5.84
				c-0.363,0-0.677,0.012-0.939,0.038c-0.154,0.015-0.284,0.052-0.394,0.112c-0.104,0.057-0.216,0.165-0.328,0.313
				c-0.097,0.128-0.251,0.384-0.433,0.864l-12.09,32.378c-0.373,0.965-0.724,1.975-1.046,3.013
				c-0.326,1.052-0.638,2.131-0.935,3.238l-0.954,3.561l-0.976-3.555c-0.293-1.064-0.606-2.125-0.935-3.152
				c-0.317-1.001-0.669-2-1.044-2.967l-12.184-32.518c-0.185-0.487-0.338-0.75-0.433-0.883c-0.1-0.139-0.203-0.24-0.298-0.292
				c-0.107-0.059-0.245-0.097-0.407-0.112c-0.271-0.025-0.581-0.038-0.926-0.038h-5.841V85.3h5.95V48.878
				c0-0.77-0.02-1.603-0.059-2.497c-0.04-0.904-0.089-1.843-0.149-2.817l-0.409-6.629l14.853,39.395
				c0.266,0.743,0.602,1.286,1.005,1.63c0.361,0.309,0.746,0.453,1.21,0.453h1.26c0.616,0,1.517-0.216,2.214-2.081l15.01-39.85
				l-0.627,7.233c-0.079,0.914-0.134,1.814-0.162,2.676c-0.029,0.886-0.044,1.714-0.044,2.487V85.3z"/>
		</g>
		<g>
			<path fill="#3FA9F5" d="M545.165,87.3h-11V24.358h15.7c3.107,0,5.846,0.524,8.137,1.558c2.305,1.042,4.23,2.516,5.724,4.382
				c1.479,1.848,2.584,4.066,3.288,6.593c0.691,2.485,1.042,5.218,1.042,8.123c0,3.071-0.365,5.932-1.087,8.502
				c-0.734,2.61-1.864,4.89-3.359,6.777c-1.513,1.909-3.443,3.412-5.736,4.466c-2.281,1.05-4.976,1.583-8.008,1.583h-4.7V87.3z
				 M536.165,85.3h7V64.342h6.7c2.742,0,5.154-0.471,7.172-1.399c2.005-0.922,3.688-2.231,5.004-3.892
				c1.33-1.678,2.34-3.722,3.002-6.076c0.672-2.394,1.013-5.073,1.013-7.961c0-2.724-0.326-5.276-0.969-7.586
				c-0.631-2.266-1.614-4.245-2.923-5.88c-1.294-1.617-2.972-2.899-4.985-3.809c-2.03-0.916-4.491-1.381-7.313-1.381h-13.7V85.3z
				 M549.865,56.682h-6.7V33.934h6.7c1.541,0,2.904,0.272,4.053,0.808c1.164,0.543,2.143,1.33,2.908,2.338
				c0.746,0.983,1.309,2.174,1.671,3.541c0.351,1.324,0.528,2.802,0.528,4.393c0,3.494-0.721,6.313-2.141,8.379
				C555.383,55.576,553.021,56.682,549.865,56.682z M545.165,54.682h4.7c2.493,0,4.25-0.792,5.371-2.422
				c1.188-1.726,1.789-4.164,1.789-7.246c0-1.418-0.155-2.724-0.462-3.881c-0.295-1.113-0.742-2.07-1.33-2.844
				c-0.575-0.757-1.282-1.325-2.161-1.735c-0.882-0.412-1.961-0.621-3.207-0.621h-4.7V54.682z"/>
		</g>
		<g>
			<path fill="#3FA9F5" d="M590.604,87.972c-2.999,0-5.741-0.678-8.15-2.015c-2.394-1.329-4.448-3.195-6.106-5.548
				c-1.64-2.323-2.916-5.12-3.792-8.313c-0.87-3.164-1.312-6.68-1.312-10.45V24.358h11v37.288c0,2.151,0.203,4.109,0.604,5.82
				c0.393,1.676,0.965,3.112,1.7,4.27c0.71,1.12,1.586,1.993,2.604,2.595c1.013,0.599,2.142,0.89,3.451,0.89
				c1.29,0,2.408-0.291,3.421-0.89c1.019-0.602,1.895-1.475,2.604-2.594c0.737-1.161,1.31-2.597,1.701-4.271
				c0.4-1.708,0.604-3.666,0.604-5.82V24.358h11v37.288c0,3.77-0.441,7.286-1.312,10.451c-0.876,3.191-2.151,5.988-3.791,8.312
				c-1.66,2.354-3.709,4.22-6.09,5.547C596.341,87.294,593.604,87.972,590.604,87.972z M573.244,26.358v35.288
				c0,3.591,0.417,6.929,1.239,9.92c0.815,2.968,1.992,5.555,3.499,7.689c1.483,2.105,3.314,3.771,5.442,4.952
				c2.108,1.171,4.524,1.764,7.18,1.764c2.654,0,5.064-0.593,7.164-1.763c2.116-1.18,3.943-2.847,5.429-4.953
				c1.506-2.135,2.683-4.722,3.498-7.689c0.822-2.992,1.239-6.33,1.239-9.921V26.358h-7v35.288c0,2.307-0.221,4.419-0.656,6.276
				c-0.443,1.892-1.103,3.536-1.96,4.886c-0.88,1.388-1.982,2.48-3.275,3.244c-1.31,0.775-2.804,1.168-4.438,1.168
				c-1.655,0-3.159-0.393-4.469-1.168c-1.294-0.764-2.396-1.856-3.275-3.245c-0.855-1.346-1.516-2.99-1.959-4.885
				c-0.437-1.86-0.657-3.972-0.657-6.276V26.358H573.244z"/>
		</g>
		<g>
			<path fill="#3FA9F5" d="M636.605,87.3h-11.03V36.522h-12.72V24.358h36.47v12.164h-12.72V87.3z M627.575,85.3h7.03V34.522h12.72
				v-8.164h-32.47v8.164h12.72V85.3z"/>
		</g>
		<g>
			<path fill="#3FA9F5" d="M682.474,87.3h-29.721V24.358h29.721v11.87h-18.66v13.666h14.52v11.534h-14.52V75.43h18.66V87.3z
				 M654.753,85.3h25.721v-7.87h-18.66V59.428h14.52v-7.534h-14.52V34.229h18.66v-7.87h-25.721V85.3z"/>
		</g>
		<g>
			<path fill="#3FA9F5" d="M724.467,87.3h-9.694c-1.344,0-3.167-0.529-4.223-3.049l-8.271-18.671
				c-0.334-0.714-0.645-1.063-0.845-1.228c-0.222-0.181-0.63-0.277-1.181-0.277h-2.061V87.3h-11V24.358h14.681
				c3.155,0,5.907,0.47,8.178,1.397c2.294,0.937,4.206,2.263,5.683,3.94c1.469,1.668,2.559,3.682,3.238,5.984
				c0.664,2.253,1.001,4.758,1.001,7.444c0,2.081-0.216,4.084-0.64,5.955c-0.428,1.882-1.059,3.624-1.874,5.178
				c-0.823,1.565-1.852,2.974-3.057,4.188c-0.871,0.877-1.84,1.639-2.892,2.275c0.236,0.248,0.466,0.51,0.686,0.788
				c0.547,0.691,1.043,1.515,1.475,2.45L724.467,87.3z M696.192,62.075h4.061c1.033,0,1.856,0.246,2.448,0.73
				c0.532,0.436,0.989,1.072,1.397,1.946l8.288,18.708c0.685,1.634,1.634,1.841,2.386,1.841h6.565l-9.482-20.504
				c-0.365-0.792-0.778-1.48-1.227-2.046c-0.446-0.563-0.934-1.05-1.447-1.447l-1.284-0.993l1.464-0.701
				c1.35-0.646,2.567-1.512,3.621-2.574c1.065-1.073,1.976-2.32,2.706-3.709c0.734-1.4,1.305-2.979,1.693-4.691
				c0.393-1.725,0.591-3.579,0.591-5.511c0-2.495-0.31-4.81-0.919-6.878c-0.597-2.021-1.546-3.78-2.822-5.229
				c-1.271-1.444-2.932-2.591-4.937-3.41c-2.029-0.829-4.526-1.249-7.422-1.249h-12.681V85.3h7V62.075z M701.813,55.212h-5.62
				V33.934h5.681c3.091,0,5.451,0.923,7.014,2.743c1.523,1.776,2.296,4.256,2.296,7.372c0,1.533-0.172,2.974-0.512,4.283
				c-0.352,1.354-0.912,2.551-1.667,3.561c-0.773,1.035-1.773,1.856-2.973,2.441C704.839,54.917,703.42,55.212,701.813,55.212z
				 M698.192,53.212h3.62c1.3,0,2.424-0.228,3.341-0.676c0.911-0.445,1.668-1.064,2.249-1.842c0.599-0.8,1.047-1.765,1.333-2.866
				c0.297-1.145,0.447-2.417,0.447-3.78c0-2.624-0.61-4.666-1.813-6.069c-1.182-1.376-2.979-2.045-5.496-2.045h-3.681V53.212z"/>
		</g>
		<g>
			<path fill="#3FA9F5" d="M729.743,87.888c-0.872,0-1.689-0.214-2.43-0.635c-0.712-0.406-1.337-0.974-1.857-1.687
				c-0.503-0.687-0.901-1.5-1.184-2.417c-0.278-0.903-0.419-1.892-0.419-2.939c0-1.018,0.141-1.999,0.418-2.915
				c0.281-0.931,0.681-1.753,1.185-2.443c0.517-0.707,1.137-1.278,1.842-1.697c1.47-0.871,3.346-0.893,4.869-0.004
				c0.717,0.418,1.344,0.99,1.863,1.701c0.505,0.691,0.903,1.513,1.186,2.443c0.277,0.917,0.418,1.898,0.418,2.916
				c0,1.047-0.141,2.037-0.419,2.94c-0.283,0.916-0.682,1.729-1.184,2.417c-0.524,0.717-1.156,1.286-1.88,1.69
				C731.404,87.676,730.594,87.888,729.743,87.888z M729.743,74.491c-0.522,0-0.988,0.126-1.425,0.385
				c-0.471,0.28-0.891,0.669-1.247,1.157c-0.372,0.508-0.67,1.128-0.886,1.842c-0.221,0.729-0.332,1.514-0.332,2.335
				c0,0.848,0.111,1.639,0.331,2.351c0.216,0.703,0.514,1.317,0.886,1.825c0.354,0.485,0.769,0.864,1.233,1.129
				c0.865,0.493,1.952,0.512,2.87-0.003c0.479-0.267,0.885-0.635,1.242-1.125c0.371-0.508,0.67-1.123,0.888-1.826
				c0.219-0.712,0.33-1.503,0.33-2.351c0-0.821-0.111-1.607-0.332-2.335c-0.217-0.714-0.516-1.334-0.886-1.843
				c-0.361-0.493-0.772-0.871-1.257-1.153C730.711,74.618,730.248,74.491,729.743,74.491z"/>
		</g>
		<g>
			<path fill="#3FA9F5" d="M756.663,87.3h-11.03V36.522h-12.72V24.358h36.47v12.164h-12.72V87.3z M747.633,85.3h7.03V34.522h12.72
				v-8.164h-32.47v8.164h12.72V85.3z"/>
		</g>
		<g>
			<path fill="#3FA9F5" d="M813.29,87.3h-9.628c-0.626,0-1.157-0.069-1.625-0.211c-0.468-0.141-0.892-0.343-1.259-0.6
				c-0.375-0.261-0.703-0.595-0.973-0.991c-0.229-0.335-0.448-0.729-0.652-1.172l-11.172-21.889
				c-0.296-0.589-0.627-0.998-0.986-1.221c-0.353-0.218-0.927-0.333-1.663-0.333h-1.521V87.3h-11V24.358h11v25.158h0.771
				c1.112,0,1.828-0.428,2.32-1.388l11.018-20.637c0.611-1.151,1.289-1.943,2.071-2.42c0.776-0.473,1.719-0.713,2.801-0.713h9.498
				l-14.684,26.475c-0.664,1.198-1.34,2.157-2.045,2.897c0.361,0.292,0.701,0.617,1.018,0.974c0.615,0.692,1.21,1.605,1.767,2.714
				L813.29,87.3z M781.812,58.882h3.521c1.141,0,2.029,0.207,2.717,0.634c0.677,0.419,1.255,1.098,1.717,2.017l11.187,21.919
				c0.176,0.378,0.34,0.676,0.506,0.92c0.135,0.197,0.286,0.354,0.465,0.478c0.194,0.136,0.427,0.245,0.692,0.325
				c0.275,0.083,0.627,0.125,1.047,0.125h6.392l-13.496-26.986c-0.479-0.952-0.974-1.72-1.474-2.282
				c-0.481-0.542-1.03-0.988-1.631-1.325l-1.358-0.762l1.259-0.918c0.836-0.61,1.679-1.674,2.504-3.163l13.036-23.505h-6.102
				c-0.71,0-1.302,0.142-1.76,0.421c-0.461,0.281-0.914,0.836-1.348,1.652l-11.011,20.624c-0.822,1.604-2.239,2.46-4.092,2.46
				h-2.771V26.358h-7V85.3h7V58.882z"/>
		</g>
	</g>
	<g>
	</g>
	<g>
	</g>
	<g>
	</g>
	<g>
	</g>
	<g>
	</g>
	<g>
	</g>
	<g>
	</g>
	<g>
	</g>
	<g>
	</g>
	<g>
	</g>
	<g>
	</g>
	<g>
	</g>
	<g>
	</g>
	<g>
	</g>
	<g>
	</g>
</g>
</svg>
